<?xml version="1.0" encoding="utf-8"?>
<!-- Generator: Adobe Illustrator 22.0.1, SVG Export Plug-In . SVG Version: 6.00 Build 0)  -->
<svg version="1.1" id="Layer_1" xmlns="http://www.w3.org/2000/svg" xmlns:xlink="http://www.w3.org/1999/xlink" x="0px" y="0px"
	 viewBox="0 0 102 102" style="enable-background:new 0 0 102 102;" xml:space="preserve">
<style type="text/css">
	.st0{fill:#F3CA40;}
    .sunny {
        -webkit-animation: spin 12s linear infinite;
        -moz-animation: spin 12s linear infinite;
        animation: spin 12s linear infinite;
        transform-origin: 50% 50%;
    }

    @-moz-keyframes spin {
        100% {
            -moz-transform: rotate(360deg);
        }
    }

    @-webkit-keyframes spin {
        100% {
            -webkit-transform: rotate(360deg);
        }
    }

    @keyframes spin {
        100% {
            -webkit-transform: rotate(360deg);
            transform: rotate(360deg);
        }
    }
</style>
<path id="Path_46" class="st0 sunny" d="M3.2,54.2h6.4c0.9,0,1.7-0.3,2.3-0.9c0.6-0.6,0.9-1.4,0.9-2.3c0-0.9-0.3-1.7-0.9-2.3
	c-0.6-0.6-1.4-0.9-2.3-0.9H3.2c-0.9,0-1.7,0.3-2.3,0.9C0.3,49.3,0,50.1,0,51c0,0.9,0.3,1.7,0.9,2.3C1.5,53.9,2.3,54.2,3.2,54.2z
	 M19.4,23.9c0.3,0.3,0.7,0.6,1.1,0.7c0.4,0.2,0.8,0.2,1.1,0.2c0.4,0,0.7-0.1,1-0.2c0.4-0.2,0.8-0.4,1.1-0.7c0.6-0.6,1-1.4,1-2.2
	c0-0.9-0.4-1.7-1-2.2l-4.5-4.5c-0.6-0.6-1.4-0.9-2.2-0.9c-0.9,0-1.7,0.3-2.3,0.9c-0.6,0.6-0.9,1.4-0.9,2.3c0,0.8,0.3,1.6,0.9,2.2
	L19.4,23.9z M51,12.8c0.9,0,1.7-0.3,2.3-0.9c0.6-0.6,0.9-1.4,0.9-2.3V3.2c0-0.9-0.3-1.7-0.9-2.3C52.7,0.3,51.9,0,51,0
	c-0.9,0-1.7,0.3-2.3,0.9c-0.6,0.6-0.9,1.4-0.9,2.3v6.4c0,0.9,0.3,1.7,0.9,2.3C49.3,12.5,50.1,12.8,51,12.8z M80.3,24.9
	c0.4,0,0.9-0.1,1.3-0.2c0.4-0.2,0.7-0.4,1-0.7l4.5-4.5c0.6-0.6,0.9-1.4,0.9-2.2c0-0.9-0.3-1.7-0.9-2.3c-0.6-0.6-1.4-0.9-2.3-0.9
	c-0.8,0-1.6,0.3-2.2,0.9l-4.5,4.5c-0.6,0.6-1,1.4-1,2.2c0,0.9,0.4,1.7,1,2.2c0.3,0.3,0.6,0.6,1,0.7C79.5,24.8,79.9,24.9,80.3,24.9z
	 M98.8,47.8h-6.4c-0.9,0-1.7,0.3-2.3,0.9c-0.6,0.6-0.9,1.4-0.9,2.3c0,0.9,0.3,1.7,0.9,2.3c0.6,0.6,1.4,0.9,2.3,0.9h6.4
	c0.9,0,1.7-0.3,2.3-0.9c0.6-0.6,0.9-1.4,0.9-2.3c0-0.9-0.3-1.7-0.9-2.3C100.5,48.1,99.7,47.8,98.8,47.8L98.8,47.8z M82.6,78.1
	c-0.6-0.6-1.4-1-2.2-1c-0.9,0-1.7,0.4-2.2,1c-0.6,0.6-1,1.4-1,2.2c0,0.9,0.4,1.7,1,2.2l4.5,4.5c0.3,0.3,0.7,0.5,1.1,0.6
	c0.3,0.2,0.7,0.2,1.1,0.2c0.4,0,0.8-0.1,1.1-0.2c0.4-0.2,0.8-0.4,1.1-0.6c0.6-0.6,0.9-1.4,0.9-2.3c0-0.8-0.3-1.6-0.9-2.2L82.6,78.1z
	 M47.8,92.4v6.4c0,1.8,1.4,3.2,3.1,3.2c1.8,0,3.2-1.4,3.2-3.1c0,0,0-0.1,0-0.1v-6.4c0-0.9-0.3-1.7-0.9-2.3c-0.6-0.6-1.4-0.9-2.3-0.9
	c-0.9,0-1.7,0.3-2.3,0.9C48.1,90.8,47.8,91.6,47.8,92.4z M17.2,88c0.4,0,0.8-0.1,1.2-0.2c0.4-0.2,0.7-0.4,1-0.6l4.5-4.5
	c0.6-0.6,1-1.4,1-2.2c0-0.9-0.4-1.7-1-2.2c-0.6-0.6-1.4-1-2.2-1c-0.9,0-1.7,0.4-2.2,1L15,82.6c-0.6,0.6-0.9,1.4-0.9,2.2
	c0,0.9,0.3,1.7,0.9,2.3c0.3,0.3,0.7,0.5,1,0.6C16.4,87.9,16.8,88,17.2,88z M51,79.7c3.8,0,7.7-0.7,11.2-2.2c3.4-1.4,6.5-3.5,9.1-6.1
	c2.6-2.6,4.7-5.7,6.1-9.1c1.5-3.5,2.3-7.4,2.2-11.2c0-3.8-0.7-7.7-2.2-11.2c-1.4-3.4-3.5-6.5-6.1-9.1c-2.6-2.6-5.7-4.7-9.1-6.1
	c-3.5-1.5-7.4-2.3-11.2-2.2c-3.8,0-7.7,0.7-11.2,2.2c-3.4,1.4-6.5,3.5-9.1,6.1c-2.6,2.6-4.7,5.7-6.1,9.1c-1.5,3.5-2.3,7.4-2.2,11.2
	c0,3.8,0.7,7.7,2.2,11.2c1.4,3.4,3.5,6.5,6.1,9.1c2.6,2.6,5.7,4.7,9.1,6.1C43.3,79,47.2,79.7,51,79.7z M51,28.7c3,0,6,0.6,8.7,1.7
	c2.6,1.1,5,2.7,7.1,4.7c2,2,3.7,4.4,4.8,7.1c1.2,2.8,1.8,5.8,1.7,8.8c0,3-0.6,6-1.7,8.7c-1.1,2.6-2.7,5-4.7,7.1
	c-2,2-4.4,3.7-7.1,4.8C57,72.7,54,73.3,51,73.3c-3,0-6-0.6-8.7-1.7c-2.6-1.1-5-2.7-7.1-4.7c-2-2-3.7-4.4-4.8-7.1
	C29.3,57,28.7,54,28.7,51c0-3,0.6-6,1.7-8.7c1.1-2.6,2.7-5,4.7-7.1c2-2,4.4-3.7,7.1-4.8C45,29.3,48,28.7,51,28.7z"/>
</svg>
