<?xml version="1.0" encoding="utf-8"?>
<!-- Generator: Adobe Illustrator 22.0.1, SVG Export Plug-In . SVG Version: 6.00 Build 0)  -->
<svg version="1.1" xmlns="http://www.w3.org/2000/svg" xmlns:xlink="http://www.w3.org/1999/xlink" x="0px" y="0px"
	 viewBox="0 0 63.1 63.1" style="enable-background:new 0 0 63.1 63.1;" xml:space="preserve">
<style type="text/css">
	.st0{fill:#F3CA40;}
	.st1{fill:#FFFFFF;}
</style>
<g id="Layer_2">
	<path class="st0" d="M17.4,12.2L16,10.8c-0.4-0.4-0.6-0.9-0.6-1.4c0-0.5,0.2-1,0.6-1.4c0.4-0.4,0.9-0.6,1.4-0.6
		c0.5,0,1,0.2,1.4,0.6l1.4,1.4c0.4,0.4,0.6,0.8,0.6,1.4c0,0.5-0.2,1-0.6,1.4c-0.2,0.2-0.4,0.4-0.6,0.5c-0.3,0.1-0.5,0.2-0.7,0.2
		c-0.2,0-0.4-0.1-0.7-0.2C17.8,12.6,17.5,12.4,17.4,12.2z"/>
	<path class="st0" d="M48.5,32.4c0.2-0.7,0.4-1.5,0.6-2.3c0.2-0.8,0.2-1.7,0.2-2.4c0-1.9-0.4-3.7-1.1-5.4c-0.7-1.7-1.7-3.1-3-4.4
		c-1.3-1.2-2.7-2.2-4.4-2.9c-1.7-0.7-3.5-1.1-5.4-1.1c-2.8,0-5.2,0.7-7.5,2.2c-2.2,1.5-3.9,3.4-5,5.9h-4.3c0.6-1.8,1.4-3.4,2.5-4.9
		c1.1-1.5,2.4-2.7,3.9-3.8c1.5-1,3.1-1.9,4.8-2.5c1.8-0.6,3.6-0.9,5.5-0.9c2.5,0,4.8,0.5,6.9,1.4c2.2,0.9,4,2.2,5.6,3.8
		c1.6,1.6,2.9,3.5,3.8,5.6c0.9,2.2,1.4,4.5,1.4,6.9c0,1-0.1,1.9-0.3,2.8c-0.2,0.9-0.4,1.8-0.7,2.7L48.5,32.4z"/>
	<path class="st0" d="M34.1,5.4c-0.4-0.4-0.6-0.8-0.6-1.4V2c0-0.6,0.2-1,0.6-1.4C34.5,0.2,34.9,0,35.5,0c0.6,0,1,0.2,1.4,0.6
		c0.4,0.4,0.6,0.8,0.6,1.4v2c0,0.6-0.2,1-0.6,1.4c-0.4,0.4-0.8,0.6-1.4,0.6C34.9,5.9,34.5,5.7,34.1,5.4z"/>
	<path class="st0" d="M51.5,12.7c-0.2-0.1-0.4-0.3-0.6-0.5c-0.4-0.4-0.6-0.8-0.6-1.4c0-0.5,0.2-1,0.6-1.4l1.4-1.4
		c0.4-0.4,0.9-0.6,1.4-0.6c0.5,0,1,0.2,1.4,0.6c0.4,0.4,0.6,0.9,0.6,1.4c0,0.5-0.2,1-0.6,1.4l-1.4,1.4c-0.2,0.2-0.4,0.4-0.6,0.5
		c-0.2,0.1-0.5,0.2-0.8,0.2C52,12.8,51.7,12.8,51.5,12.7z"/>
	<path class="st0" d="M62.6,26.2c0.4,0.4,0.6,0.8,0.6,1.4c0,0.6-0.2,1-0.6,1.4c-0.4,0.4-0.8,0.6-1.4,0.6h-2c-0.6,0-1-0.2-1.4-0.6
		c-0.4-0.4-0.6-0.8-0.6-1.4c0-0.6,0.2-1,0.6-1.4c0.4-0.4,0.8-0.6,1.4-0.6h2C61.7,25.6,62.2,25.8,62.6,26.2z"/>
</g>
<g id="Layer_1">
	<g>
		<path class="st1" d="M47.7,59.2c3.2,0,5.9-1.1,8.1-3.4c2.2-2.2,3.4-4.9,3.4-8.1c0-3.1-1.1-5.8-3.4-8c-2.2-2.2-4.9-3.4-8.1-3.4
			c-1.4,0-2.7,0.2-3.9,0.7c-1.3,0.5-2.4,1.2-3.5,2.1c-0.2,0.2-0.5,0.3-0.8,0.4c-0.3,0.1-0.7,0.1-1,0c-0.4-0.1-0.7-0.3-0.9-0.5
			c-0.2-0.3-0.3-0.5-0.4-0.8c-0.5-1.8-1.3-3.5-2.3-5.1c-1-1.5-2.3-2.8-3.8-3.9c-1.5-1.1-3.1-1.9-4.8-2.6c-1.7-0.6-3.6-0.9-5.5-0.9
			c-2.3,0-4.5,0.4-6.5,1.3c-2.1,0.9-3.8,2.1-5.3,3.6c-1.5,1.5-2.7,3.3-3.6,5.3c-0.9,2-1.3,4.2-1.3,6.5c0,2.3,0.4,4.5,1.3,6.5
			c0.9,2,2.1,3.8,3.6,5.3c1.5,1.5,3.3,2.7,5.3,3.6s4.2,1.3,6.5,1.3H47.7z M52.3,33.2c1.9,0.7,3,1.2,4.3,2.1c1.3,0.9,2.5,2,3.4,3.3
			c0.9,1.3,1.7,2.7,2.2,4.2c0.5,1.5,0.7,3.2,0.7,4.9c0,2.1-0.4,4.1-1.2,6c-0.8,1.9-1.9,3.5-3.3,4.9c-1.4,1.4-3,2.5-4.9,3.3
			c-1.9,0.8-3.9,1.2-6,1.2H20.7c-2.9,0-5.6-0.5-8.1-1.6c-2.5-1.1-4.7-2.6-6.6-4.4c-1.9-1.9-3.4-4.1-4.4-6.6C0.5,48,0,45.3,0,42.4
			c0-2.7,0.5-5.2,1.4-7.6c1-2.4,2.3-4.5,4-6.3c1.7-1.8,3.7-3.4,5.9-4.5c2.3-1.2,4.7-1.9,7.3-2.1c0,0,2.9-0.1,4.3,0s3.7,0.7,5.4,1.4
			c1.7,0.7,3.3,1.6,4.8,2.7c1.5,1.1,2.8,2.4,3.9,3.8c1.2,1.5,2.1,3.1,2.9,4.8c1.2-0.7,2.4-1.2,3.7-1.6c1.3-0.4,2.6-0.6,4-0.6
			c0.2,0,0.4,0,0.5,0c0.1,0,0.2,0,0.3,0C48.5,32.4,50.3,32.5,52.3,33.2z"/>
	</g>
</g>
</svg>
