<svg width="68" height="68" xmlns="http://www.w3.org/2000/svg">

 <g>
  <title>background</title>
  <rect fill="none" id="canvas_background" height="70" width="70" y="-1" x="-1"/>
 </g>
 <g>
  <title>Layer 1</title>
  <path stroke="#ffffff" fill="#ffffff" id="svg_1" d="m37.247974,64c-16.500002,0 -30.000001,-13.5 -30.000001,-30s13.499999,-30 30.000001,-30c0.700001,0 1.5,0 2.299999,0.1c0.599998,0 1,0.4 1.300003,0.9c0.199997,0.5 0.099998,1.1 -0.200001,1.5c-4,4.799998 -6.200005,10.899999 -6.200005,17.199996c0,14 10.900002,25.800003 24.900002,26.900002c0.600002,0 1,0.400002 1.299999,0.900002c0.200005,0.5 0.100002,1.099998 -0.200001,1.5c-5.799999,7 -14.299999,11 -23.199997,11zm-0.800003,-57c-14.499998,0.4 -26.199998,12.399999 -26.199998,27c0,14.900002 12.100001,27 27.000001,27c7.099998,0 13.899994,-2.800003 18.899994,-7.699997c-14.099995,-2.5 -24.699997,-14.900009 -24.699997,-29.500004c-0.099998,-6.000004 1.700001,-11.899999 5,-16.799999z"/>
 </g>
</svg>