<svg xmlns="http://www.w3.org/2000/svg" viewBox="601 2169.125 92 63.25">
  <defs>
    <style>
      .cls-1 {
        fill: #fff;
      }
    </style>
  </defs>
  <path id="Path_47" data-name="Path 47" class="cls-1" d="M77.355-45.73a31.51,31.51,0,0,0-3.773-10.377,31.1,31.1,0,0,0-6.963-8.311,32.19,32.19,0,0,0-9.434-5.48A31.513,31.513,0,0,0,46-71.875a31.169,31.169,0,0,0-9.568,1.482A31.533,31.533,0,0,0,27.9-66.17a32.617,32.617,0,0,0-6.918,6.559,35.059,35.059,0,0,0-4.9,8.4A22.23,22.23,0,0,0,9.7-48.2a22.355,22.355,0,0,0-5.121,4.807A22.354,22.354,0,0,0,1.213-37.24,20.662,20.662,0,0,0,0-30.187a20.77,20.77,0,0,0,1.527,7.951,21.456,21.456,0,0,0,4.223,6.6,22.362,22.362,0,0,0,6.379,4.717,23.065,23.065,0,0,0,8,2.291H75.02A19.684,19.684,0,0,0,81.8-10.691a19.3,19.3,0,0,0,5.391-4.133,18.456,18.456,0,0,0,3.549-5.705A18.321,18.321,0,0,0,92-27.312a18.336,18.336,0,0,0-4.088-11.77A18.6,18.6,0,0,0,77.355-45.73ZM74.48-14.375H20.395A16.169,16.169,0,0,1,9.973-19.451,15.03,15.03,0,0,1,5.75-30.187,15.153,15.153,0,0,1,9.568-40.43a15.343,15.343,0,0,1,9.389-5.3,3.229,3.229,0,0,0,1.482-.674,2.838,2.838,0,0,0,.854-1.3,25.387,25.387,0,0,1,3.684-7.5A26.664,26.664,0,0,1,30.637-61a25.889,25.889,0,0,1,7.143-3.773A25.039,25.039,0,0,1,46-66.125a25.748,25.748,0,0,1,9.568,1.8,26.463,26.463,0,0,1,8,4.9,25.464,25.464,0,0,1,5.66,7.367,24.786,24.786,0,0,1,2.65,9.209,2.227,2.227,0,0,0,.764,1.752,3.62,3.62,0,0,0,1.842.854,13.372,13.372,0,0,1,8.355,4.313,12.283,12.283,0,0,1,3.414,8.625,12.464,12.464,0,0,1-3.324,8.625A13.15,13.15,0,0,1,74.48-14.375Z" transform="translate(601 2241)"/>
</svg>
