<?xml version="1.0" encoding="utf-8"?>
<!-- Generator: Adobe Illustrator 22.0.1, SVG Export Plug-In . SVG Version: 6.00 Build 0)  -->
<svg version="1.1" id="Layer_1" xmlns="http://www.w3.org/2000/svg" xmlns:xlink="http://www.w3.org/1999/xlink" x="0px" y="0px"
	 viewBox="0 0 92 77.6" style="enable-background:new 0 0 92 77.6;" xml:space="preserve">
<style type="text/css">
	.st0{fill:#FFFFFF;}
    .snowflake {
        animation: spin 4s linear infinite;
    }
    @keyframes spin {
        0% {
        transform: translateX(-2px) translateY(-16px) rotate(0deg);
        transform-origin:center;
        opactity:1;
        }
        50% {
        transform: translateX(5px) translateY(-5px) rotate(50deg);
        transform-origin:center;
        opactity:1;
        }
        100% {
        transform: translateX(-5px) translateY(4px) rotate(100deg);
        transform-origin:center;
        opacity:0;
        }
    }
</style>
<path id="Path_47" class="st0" d="M77.4,26.1c-0.6-3.7-1.9-7.2-3.8-10.4c-1.8-3.2-4.2-6-7-8.3c-2.8-2.4-6-4.2-9.4-5.5
	C53.6,0.6,49.8,0,46,0c-3.2,0-6.5,0.5-9.6,1.5c-3,1-5.9,2.4-8.5,4.2c-2.6,1.8-4.9,4-6.9,6.6c-2,2.6-3.7,5.4-4.9,8.4
	c-2.3,0.7-4.4,1.7-6.4,3C7.8,25,6,26.6,4.6,28.5c-1.4,1.9-2.6,3.9-3.4,6.2C0.4,36.9,0,39.3,0,41.7c0,2.7,0.5,5.4,1.5,8
	c1,2.4,2.4,4.7,4.2,6.6c1.8,1.9,3.9,3.5,6.3,4.7c2.5,1.2,5.1,2,7.9,2.3c0.8,0.1,1.6-0.1,2.1-0.7c0.5-0.5,0.9-1.2,1-1.9
	c0.1-0.7-0.1-1.5-0.7-2c-0.5-0.6-1.2-1-1.9-1.1c-4-0.3-7.7-2.2-10.4-5.1c-2.8-2.9-4.3-6.7-4.2-10.7c0-3.8,1.3-7.4,3.8-10.2
	c2.4-2.8,5.7-4.7,9.4-5.3c0.5-0.1,0.9-0.4,1.3-0.7c0.4-0.4,0.8-0.8,1.1-1.3c0.8-2.7,2.1-5.2,3.7-7.5c1.6-2.2,3.5-4.2,5.7-5.8
	c2.2-1.6,4.6-2.9,7.1-3.8c2.6-0.9,5.4-1.4,8.2-1.4c3.3,0,6.5,0.6,9.6,1.8c2.9,1.1,5.6,2.8,8,4.9c2.3,2.1,4.2,4.6,5.7,7.4
	c1.5,2.9,2.4,6,2.7,9.2c0,0.7,0.3,1.3,0.8,1.8c0.5,0.5,1.2,0.8,1.8,0.9c3.2,0.4,6.2,1.9,8.4,4.3c2.2,2.3,3.4,5.4,3.4,8.6
	c0,3.2-1.2,6.3-3.4,8.7c-2.1,2.4-5.1,4-8.4,4.2c-0.7,0.1-1.4,0.5-1.8,1.1c-0.5,0.6-0.8,1.3-0.8,2c0.1,0.7,0.5,1.4,1,1.8
	c0.5,0.5,1.2,0.8,1.9,0.8H75c2.4-0.3,4.7-1,6.8-2.1c2-1,3.9-2.4,5.4-4.1c1.5-1.7,2.7-3.6,3.5-5.7c0.8-2.2,1.3-4.5,1.3-6.8
	c0.1-4.3-1.4-8.4-4.1-11.8C85.3,29.4,81.5,27.1,77.4,26.1z"/>
<path class="st0 snowflake" d="M33.6,70.4c0.3,0.4,0.7,0.8,1.1,1c0.4,0.3,1,0.4,1.5,0.4c0.2,0,0.5,0,0.7,0c0.2-0.1,0.5-0.1,0.7-0.2l5.8-3.1
	v6.3c0,0.8,0.3,1.5,0.8,2.1c0.5,0.5,1.3,0.8,2.1,0.8c0.8,0,1.6-0.3,2.1-0.8c0.5-0.6,0.8-1.3,0.8-2.1v-6.6l5.8,3.2
	c0.2,0.1,0.5,0.2,0.7,0.2c0.2,0,0.5,0,0.7,0c0.5,0,1-0.2,1.4-0.4c0.5-0.2,0.9-0.6,1.2-1c0.4-0.7,0.5-1.5,0.3-2.2
	c-0.2-0.8-0.7-1.4-1.4-1.8l-6-2.9l5.8-3.1c0.7-0.4,1.2-1,1.3-1.8c0.2-0.7,0.1-1.5-0.2-2.2c-0.4-0.7-1-1.2-1.8-1.3
	c-0.7-0.2-1.5-0.1-2.2,0.2L48.9,58v-6.3c0-0.8-0.3-1.5-0.8-2.1c-0.5-0.5-1.3-0.8-2.1-0.8c-0.8,0-1.5,0.3-2.1,0.8
	c-0.5,0.5-0.8,1.3-0.8,2.1v6.6l-5.8-3.2c-0.7-0.4-1.5-0.5-2.2-0.3c-0.8,0.2-1.4,0.7-1.8,1.4c-0.4,0.7-0.5,1.5-0.3,2.2
	c0.2,0.8,0.7,1.4,1.4,1.8l5.8,3.1l-5.8,3.1c-0.6,0.3-1.1,0.9-1.2,1.6C33.1,69,33.2,69.8,33.6,70.4z"/>
</svg>
