<?xml version="1.0" encoding="utf-8"?>
<!-- Generator: Adobe Illustrator 22.0.1, SVG Export Plug-In . SVG Version: 6.00 Build 0)  -->
<svg version="1.1" id="Layer_1" xmlns="http://www.w3.org/2000/svg" xmlns:xlink="http://www.w3.org/1999/xlink" x="0px" y="0px"
	 viewBox="0 0 92 62.2" style="enable-background:new 0 0 92 62.2;" xml:space="preserve">
<style type="text/css">
	.st0{fill:#FFFFFF;}
</style>
<g>
	<path class="st0" d="M0.3,36.6C0,36-0.1,35.3,0.1,34.4c0.1-0.8,0.5-1.5,1.1-1.9L12.3,26c3.1-1.7,6.5-2.5,10.1-2.4
		c3.7,0.1,7.1,1.2,10.4,3.3l6.6,4.3c2.1,1.4,4.5,2.1,7,2.1c2.5,0,4.8-0.7,7-2.1l6.6-4.3c3-2,6.2-3.1,9.8-3.2
		c3.6-0.1,6.9,0.8,9.9,2.7l11.1,6.5c0.5,0.4,0.9,1,1.1,1.8s0.1,1.5-0.3,2.2c-0.4,0.6-1,1-1.8,1.2c-0.8,0.2-1.5,0.1-2.2-0.3
		l-11.1-6.6c-2.1-1.3-4.5-1.9-7-1.8c-2.5,0.1-4.8,0.8-6.8,2.1l-6.6,4.3c-1.5,1-3.2,1.8-4.9,2.3c-1.7,0.5-3.5,0.8-5.3,0.8
		c-1.8,0-3.6-0.3-5.3-0.8c-1.7-0.5-3.4-1.3-4.9-2.3l-6.6-4.3c-2.1-1.2-4.4-1.9-6.8-2.1c-2.4-0.1-4.7,0.5-6.8,1.8L4.3,37.4
		c-0.7,0.5-1.5,0.6-2.2,0.5S0.7,37.3,0.3,36.6z M0.3,13.1c-0.3-0.7-0.4-1.4-0.2-2.2c0.2-0.7,0.6-1.3,1.3-1.7l10.9-6.6
		c3.1-1.8,6.4-2.7,10-2.6s6.9,1.2,9.9,3.1l6.5,4.3c2.1,1.4,4.5,2.1,7,2.1s4.9-0.7,7-2.1l6.6-4.3c3-2,6.2-3,9.8-3.1
		C72.8-0.1,76,0.8,79,2.6l11.8,6.6c0.5,0.4,0.9,1,1.1,1.7c0.2,0.7,0.1,1.5-0.3,2.2c-0.4,0.6-1,1-1.8,1.2c-0.8,0.2-1.5,0.1-2.2-0.3
		L76.5,7.4c-2.1-1.2-4.5-1.8-7-1.7c-2.5,0.1-4.8,0.8-6.8,2.1L56.2,12c-1.5,1-3.2,1.7-4.9,2.3c-1.7,0.6-3.5,0.8-5.3,0.8
		c-1.8,0-3.6-0.3-5.3-0.8c-1.7-0.6-3.4-1.3-4.9-2.3l-6.6-4.3c-2.1-1.3-4.4-2-6.8-2.1c-2.4-0.1-4.7,0.5-6.8,1.7L4.3,14
		c-0.7,0.4-1.5,0.5-2.2,0.4S0.7,13.8,0.3,13.1z M0.3,60.2C0,59.5,0,58.7,0.2,58C0.4,57.3,1,56.7,2,56.3l11.1-6.6
		c3-1.7,6.3-2.6,9.9-2.5c3.6,0.1,6.8,1.1,9.8,3l6.6,4.3c2.1,1.4,4.5,2.1,7,2.1c2.5,0,4.8-0.7,7-2.1l6.6-4.3c3-2,6.2-3,9.8-3.1
		c3.6-0.1,6.9,0.7,9.9,2.6l11.1,6.6c0.5,0.4,0.9,1,1.1,1.9c0.2,0.8,0.1,1.5-0.3,2.1c-0.4,0.6-1,1-1.8,1.2c-0.8,0.2-1.5,0.1-2.2-0.3
		l-11.1-6.6c-2.1-1.2-4.5-1.9-7-1.8s-4.8,0.8-6.8,2.2l-6.6,4.3c-1.5,1-3.2,1.7-4.9,2.3c-1.7,0.6-3.5,0.8-5.3,0.8
		c-1.8,0-3.6-0.3-5.3-0.8c-1.7-0.6-3.4-1.3-4.9-2.3l-6.6-4.3c-2.1-1.3-4.4-2-6.8-2.1c-2.4-0.1-4.7,0.5-6.8,1.7L4.3,61.1
		c-0.7,0.4-1.5,0.5-2.2,0.4S0.7,60.9,0.3,60.2z"/>
</g>
</svg>
